<mxfile host="app.diagrams.net" modified="2024-05-17T10:14:24.473Z" agent="Mozilla/5.0 (Windows NT 10.0; Win64; x64; rv:127.0) Gecko/20100101 Firefox/127.0" etag="xKVvPDczqT8AJxlizzIK" version="24.4.3" type="device">
  <diagram name="Page-1" id="IexnlJuM4Le2CERARS1C">
    <mxGraphModel dx="3000" dy="2384" grid="1" gridSize="10" guides="1" tooltips="1" connect="1" arrows="1" fold="1" page="1" pageScale="1" pageWidth="1100" pageHeight="850" math="0" shadow="0">
      <root>
        <mxCell id="0" />
        <mxCell id="1" parent="0" />
        <object placeholders="1" c4Name="FitSphere" c4Type="SystemScopeBoundary" c4Application="Software System" label="&lt;font style=&quot;font-size: 16px&quot;&gt;&lt;b&gt;&lt;div style=&quot;text-align: left&quot;&gt;%c4Name%&lt;/div&gt;&lt;/b&gt;&lt;/font&gt;&lt;div style=&quot;text-align: left&quot;&gt;[%c4Application%]&lt;/div&gt;" id="z5C8JRIx1b2JsZ4OGCQY-10">
          <mxCell style="rounded=1;fontSize=11;whiteSpace=wrap;html=1;dashed=1;arcSize=20;fillColor=none;strokeColor=#666666;fontColor=#333333;labelBackgroundColor=none;align=left;verticalAlign=bottom;labelBorderColor=none;spacingTop=0;spacing=10;dashPattern=8 4;metaEdit=1;rotatable=0;perimeter=rectanglePerimeter;noLabel=0;labelPadding=0;allowArrows=0;connectable=0;expand=0;recursiveResize=0;editable=1;pointerEvents=0;absoluteArcSize=1;points=[[0.25,0,0],[0.5,0,0],[0.75,0,0],[1,0.25,0],[1,0.5,0],[1,0.75,0],[0.75,1,0],[0.5,1,0],[0.25,1,0],[0,0.75,0],[0,0.5,0],[0,0.25,0]];" vertex="1" parent="1">
            <mxGeometry x="50" y="130" width="1680" height="850" as="geometry" />
          </mxCell>
        </object>
        <object placeholders="1" c4Name="Database" c4Type="Container" c4Technology="MySQL" c4Description="Stores the systems data." label="&lt;font style=&quot;font-size: 16px&quot;&gt;&lt;b&gt;%c4Name%&lt;/b&gt;&lt;/font&gt;&lt;div&gt;[%c4Type%:&amp;nbsp;%c4Technology%]&lt;/div&gt;&lt;br&gt;&lt;div&gt;&lt;font style=&quot;font-size: 11px&quot;&gt;&lt;font color=&quot;#E6E6E6&quot;&gt;%c4Description%&lt;/font&gt;&lt;/div&gt;" id="z5C8JRIx1b2JsZ4OGCQY-15">
          <mxCell style="shape=cylinder3;size=15;whiteSpace=wrap;html=1;boundedLbl=1;rounded=0;labelBackgroundColor=none;fillColor=#23A2D9;fontSize=12;fontColor=#ffffff;align=center;strokeColor=#0E7DAD;metaEdit=1;points=[[0.5,0,0],[1,0.25,0],[1,0.5,0],[1,0.75,0],[0.5,1,0],[0,0.75,0],[0,0.5,0],[0,0.25,0]];resizable=0;" vertex="1" parent="1">
            <mxGeometry x="710" y="1090" width="240" height="120" as="geometry" />
          </mxCell>
        </object>
        <object placeholders="1" c4Name="User Controller" c4Type="Component" c4Technology="Spring Rest Controller" c4Description="Provides users features." label="&lt;font style=&quot;font-size: 16px&quot;&gt;&lt;b&gt;%c4Name%&lt;/b&gt;&lt;/font&gt;&lt;div&gt;[%c4Type%: %c4Technology%]&lt;/div&gt;&lt;br&gt;&lt;div&gt;&lt;font style=&quot;font-size: 11px&quot;&gt;%c4Description%&lt;/font&gt;&lt;/div&gt;" id="z5C8JRIx1b2JsZ4OGCQY-18">
          <mxCell style="rounded=1;whiteSpace=wrap;html=1;labelBackgroundColor=none;fillColor=#63BEF2;fontColor=#ffffff;align=center;arcSize=6;strokeColor=#2086C9;metaEdit=1;resizable=0;points=[[0.25,0,0],[0.5,0,0],[0.75,0,0],[1,0.25,0],[1,0.5,0],[1,0.75,0],[0.75,1,0],[0.5,1,0],[0.25,1,0],[0,0.75,0],[0,0.5,0],[0,0.25,0]];" vertex="1" parent="1">
            <mxGeometry x="70" y="170" width="240" height="120" as="geometry" />
          </mxCell>
        </object>
        <mxCell id="z5C8JRIx1b2JsZ4OGCQY-62" style="edgeStyle=orthogonalEdgeStyle;rounded=0;orthogonalLoop=1;jettySize=auto;html=1;curved=1;" edge="1" parent="1" source="z5C8JRIx1b2JsZ4OGCQY-19" target="z5C8JRIx1b2JsZ4OGCQY-20">
          <mxGeometry relative="1" as="geometry">
            <Array as="points">
              <mxPoint x="830" y="70" />
              <mxPoint x="450" y="70" />
            </Array>
          </mxGeometry>
        </mxCell>
        <mxCell id="z5C8JRIx1b2JsZ4OGCQY-64" style="edgeStyle=orthogonalEdgeStyle;rounded=0;orthogonalLoop=1;jettySize=auto;html=1;curved=1;" edge="1" parent="1" source="z5C8JRIx1b2JsZ4OGCQY-19" target="z5C8JRIx1b2JsZ4OGCQY-22">
          <mxGeometry relative="1" as="geometry">
            <Array as="points">
              <mxPoint x="830" y="60" />
              <mxPoint x="970" y="60" />
            </Array>
          </mxGeometry>
        </mxCell>
        <mxCell id="z5C8JRIx1b2JsZ4OGCQY-65" style="edgeStyle=orthogonalEdgeStyle;rounded=0;orthogonalLoop=1;jettySize=auto;html=1;curved=1;" edge="1" parent="1" source="z5C8JRIx1b2JsZ4OGCQY-19" target="z5C8JRIx1b2JsZ4OGCQY-23">
          <mxGeometry relative="1" as="geometry">
            <Array as="points">
              <mxPoint x="830" y="70" />
              <mxPoint x="1230" y="70" />
            </Array>
          </mxGeometry>
        </mxCell>
        <object placeholders="1" c4Name="Front-end Framework" c4Type="Container" c4Technology="React" c4Description="Displays the pages in the website." label="&lt;font style=&quot;font-size: 16px&quot;&gt;&lt;b&gt;%c4Name%&lt;/b&gt;&lt;/font&gt;&lt;div&gt;[%c4Type%:&amp;nbsp;%c4Technology%]&lt;/div&gt;&lt;br&gt;&lt;div&gt;&lt;font style=&quot;font-size: 11px&quot;&gt;&lt;font color=&quot;#E6E6E6&quot;&gt;%c4Description%&lt;/font&gt;&lt;/div&gt;" id="z5C8JRIx1b2JsZ4OGCQY-19">
          <mxCell style="shape=mxgraph.c4.webBrowserContainer2;whiteSpace=wrap;html=1;boundedLbl=1;rounded=0;labelBackgroundColor=none;strokeColor=#118ACD;fillColor=#23A2D9;strokeColor=#118ACD;strokeColor2=#0E7DAD;fontSize=12;fontColor=#ffffff;align=center;metaEdit=1;points=[[0.5,0,0],[1,0.25,0],[1,0.5,0],[1,0.75,0],[0.5,1,0],[0,0.75,0],[0,0.5,0],[0,0.25,0]];resizable=0;" vertex="1" parent="1">
            <mxGeometry x="710" y="-160" width="240" height="160" as="geometry" />
          </mxCell>
        </object>
        <object placeholders="1" c4Name="Login Controller" c4Type="Component" c4Technology="Spring Rest Controller" c4Description="Provides authentication logic." label="&lt;font style=&quot;font-size: 16px&quot;&gt;&lt;b&gt;%c4Name%&lt;/b&gt;&lt;/font&gt;&lt;div&gt;[%c4Type%: %c4Technology%]&lt;/div&gt;&lt;br&gt;&lt;div&gt;&lt;font style=&quot;font-size: 11px&quot;&gt;%c4Description%&lt;/font&gt;&lt;/div&gt;" id="z5C8JRIx1b2JsZ4OGCQY-20">
          <mxCell style="rounded=1;whiteSpace=wrap;html=1;labelBackgroundColor=none;fillColor=#63BEF2;fontColor=#ffffff;align=center;arcSize=6;strokeColor=#2086C9;metaEdit=1;resizable=0;points=[[0.25,0,0],[0.5,0,0],[0.75,0,0],[1,0.25,0],[1,0.5,0],[1,0.75,0],[0.75,1,0],[0.5,1,0],[0.25,1,0],[0,0.75,0],[0,0.5,0],[0,0.25,0]];" vertex="1" parent="1">
            <mxGeometry x="330" y="170" width="240" height="120" as="geometry" />
          </mxCell>
        </object>
        <object placeholders="1" c4Name="Workout Controller" c4Type="Component" c4Technology="Spring Rest Controller" c4Description="Provides workouts features." label="&lt;font style=&quot;font-size: 16px&quot;&gt;&lt;b&gt;%c4Name%&lt;/b&gt;&lt;/font&gt;&lt;div&gt;[%c4Type%: %c4Technology%]&lt;/div&gt;&lt;br&gt;&lt;div&gt;&lt;font style=&quot;font-size: 11px&quot;&gt;%c4Description%&lt;/font&gt;&lt;/div&gt;" id="z5C8JRIx1b2JsZ4OGCQY-21">
          <mxCell style="rounded=1;whiteSpace=wrap;html=1;labelBackgroundColor=none;fillColor=#63BEF2;fontColor=#ffffff;align=center;arcSize=6;strokeColor=#2086C9;metaEdit=1;resizable=0;points=[[0.25,0,0],[0.5,0,0],[0.75,0,0],[1,0.25,0],[1,0.5,0],[1,0.75,0],[0.75,1,0],[0.5,1,0],[0.25,1,0],[0,0.75,0],[0,0.5,0],[0,0.25,0]];" vertex="1" parent="1">
            <mxGeometry x="590" y="170" width="240" height="120" as="geometry" />
          </mxCell>
        </object>
        <object placeholders="1" c4Name="Appointment Controller" c4Type="Component" c4Technology="Spring Rest Controller" c4Description="Provides appointments features." label="&lt;font style=&quot;font-size: 16px&quot;&gt;&lt;b&gt;%c4Name%&lt;/b&gt;&lt;/font&gt;&lt;div&gt;[%c4Type%: %c4Technology%]&lt;/div&gt;&lt;br&gt;&lt;div&gt;&lt;font style=&quot;font-size: 11px&quot;&gt;%c4Description%&lt;/font&gt;&lt;/div&gt;" id="z5C8JRIx1b2JsZ4OGCQY-22">
          <mxCell style="rounded=1;whiteSpace=wrap;html=1;labelBackgroundColor=none;fillColor=#63BEF2;fontColor=#ffffff;align=center;arcSize=6;strokeColor=#2086C9;metaEdit=1;resizable=0;points=[[0.25,0,0],[0.5,0,0],[0.75,0,0],[1,0.25,0],[1,0.5,0],[1,0.75,0],[0.75,1,0],[0.5,1,0],[0.25,1,0],[0,0.75,0],[0,0.5,0],[0,0.25,0]];" vertex="1" parent="1">
            <mxGeometry x="850" y="170" width="240" height="120" as="geometry" />
          </mxCell>
        </object>
        <object placeholders="1" c4Name="Rating Controller" c4Type="Component" c4Technology="Spring Rest Controller" c4Description="Provides ratings features." label="&lt;font style=&quot;font-size: 16px&quot;&gt;&lt;b&gt;%c4Name%&lt;/b&gt;&lt;/font&gt;&lt;div&gt;[%c4Type%: %c4Technology%]&lt;/div&gt;&lt;br&gt;&lt;div&gt;&lt;font style=&quot;font-size: 11px&quot;&gt;%c4Description%&lt;/font&gt;&lt;/div&gt;" id="z5C8JRIx1b2JsZ4OGCQY-23">
          <mxCell style="rounded=1;whiteSpace=wrap;html=1;labelBackgroundColor=none;fillColor=#63BEF2;fontColor=#ffffff;align=center;arcSize=6;strokeColor=#2086C9;metaEdit=1;resizable=0;points=[[0.25,0,0],[0.5,0,0],[0.75,0,0],[1,0.25,0],[1,0.5,0],[1,0.75,0],[0.75,1,0],[0.5,1,0],[0.25,1,0],[0,0.75,0],[0,0.5,0],[0,0.25,0]];" vertex="1" parent="1">
            <mxGeometry x="1110" y="170" width="240" height="120" as="geometry" />
          </mxCell>
        </object>
        <mxCell id="z5C8JRIx1b2JsZ4OGCQY-45" style="edgeStyle=orthogonalEdgeStyle;rounded=0;orthogonalLoop=1;jettySize=auto;html=1;curved=1;" edge="1" parent="1" source="z5C8JRIx1b2JsZ4OGCQY-24" target="z5C8JRIx1b2JsZ4OGCQY-33">
          <mxGeometry relative="1" as="geometry">
            <Array as="points">
              <mxPoint x="190" y="590" />
              <mxPoint x="710" y="590" />
            </Array>
          </mxGeometry>
        </mxCell>
        <object placeholders="1" c4Name="User Service" c4Type="Component" c4Technology="Spring Service" c4Description="Provides the business logic related to the users of the platform." label="&lt;font style=&quot;font-size: 16px&quot;&gt;&lt;b&gt;%c4Name%&lt;/b&gt;&lt;/font&gt;&lt;div&gt;[%c4Type%: %c4Technology%]&lt;/div&gt;&lt;br&gt;&lt;div&gt;&lt;font style=&quot;font-size: 11px&quot;&gt;%c4Description%&lt;/font&gt;&lt;/div&gt;" id="z5C8JRIx1b2JsZ4OGCQY-24">
          <mxCell style="rounded=1;whiteSpace=wrap;html=1;labelBackgroundColor=none;fillColor=#63BEF2;fontColor=#ffffff;align=center;arcSize=6;strokeColor=#2086C9;metaEdit=1;resizable=0;points=[[0.25,0,0],[0.5,0,0],[0.75,0,0],[1,0.25,0],[1,0.5,0],[1,0.75,0],[0.75,1,0],[0.5,1,0],[0.25,1,0],[0,0.75,0],[0,0.5,0],[0,0.25,0]];" vertex="1" parent="1">
            <mxGeometry x="70" y="440" width="240" height="120" as="geometry" />
          </mxCell>
        </object>
        <object placeholders="1" c4Name="Login Use Case" c4Type="Component" c4Technology="Spring Service" c4Description="Provides the logic allowing users to be authenticated in the platform." label="&lt;font style=&quot;font-size: 16px&quot;&gt;&lt;b&gt;%c4Name%&lt;/b&gt;&lt;/font&gt;&lt;div&gt;[%c4Type%: %c4Technology%]&lt;/div&gt;&lt;br&gt;&lt;div&gt;&lt;font style=&quot;font-size: 11px&quot;&gt;%c4Description%&lt;/font&gt;&lt;/div&gt;" id="z5C8JRIx1b2JsZ4OGCQY-25">
          <mxCell style="rounded=1;whiteSpace=wrap;html=1;labelBackgroundColor=none;fillColor=#63BEF2;fontColor=#ffffff;align=center;arcSize=6;strokeColor=#2086C9;metaEdit=1;resizable=0;points=[[0.25,0,0],[0.5,0,0],[0.75,0,0],[1,0.25,0],[1,0.5,0],[1,0.75,0],[0.75,1,0],[0.5,1,0],[0.25,1,0],[0,0.75,0],[0,0.5,0],[0,0.25,0]];" vertex="1" parent="1">
            <mxGeometry x="330" y="440" width="240" height="120" as="geometry" />
          </mxCell>
        </object>
        <object placeholders="1" c4Name="Workout Service" c4Type="Component" c4Technology="Spring Service" c4Description="Provides the business logic related to the workouts in the platform." label="&lt;font style=&quot;font-size: 16px&quot;&gt;&lt;b&gt;%c4Name%&lt;/b&gt;&lt;/font&gt;&lt;div&gt;[%c4Type%: %c4Technology%]&lt;/div&gt;&lt;br&gt;&lt;div&gt;&lt;font style=&quot;font-size: 11px&quot;&gt;%c4Description%&lt;/font&gt;&lt;/div&gt;" id="z5C8JRIx1b2JsZ4OGCQY-26">
          <mxCell style="rounded=1;whiteSpace=wrap;html=1;labelBackgroundColor=none;fillColor=#63BEF2;fontColor=#ffffff;align=center;arcSize=6;strokeColor=#2086C9;metaEdit=1;resizable=0;points=[[0.25,0,0],[0.5,0,0],[0.75,0,0],[1,0.25,0],[1,0.5,0],[1,0.75,0],[0.75,1,0],[0.5,1,0],[0.25,1,0],[0,0.75,0],[0,0.5,0],[0,0.25,0]];" vertex="1" parent="1">
            <mxGeometry x="590" y="440" width="240" height="120" as="geometry" />
          </mxCell>
        </object>
        <mxCell id="z5C8JRIx1b2JsZ4OGCQY-48" style="edgeStyle=orthogonalEdgeStyle;rounded=0;orthogonalLoop=1;jettySize=auto;html=1;curved=1;" edge="1" parent="1" source="z5C8JRIx1b2JsZ4OGCQY-27" target="z5C8JRIx1b2JsZ4OGCQY-34">
          <mxGeometry relative="1" as="geometry" />
        </mxCell>
        <mxCell id="z5C8JRIx1b2JsZ4OGCQY-49" style="edgeStyle=orthogonalEdgeStyle;rounded=0;orthogonalLoop=1;jettySize=auto;html=1;curved=1;" edge="1" parent="1" source="z5C8JRIx1b2JsZ4OGCQY-27" target="z5C8JRIx1b2JsZ4OGCQY-33">
          <mxGeometry relative="1" as="geometry">
            <Array as="points">
              <mxPoint x="970" y="650" />
              <mxPoint x="710" y="650" />
            </Array>
          </mxGeometry>
        </mxCell>
        <mxCell id="z5C8JRIx1b2JsZ4OGCQY-54" style="edgeStyle=orthogonalEdgeStyle;rounded=0;orthogonalLoop=1;jettySize=auto;html=1;curved=1;" edge="1" parent="1" source="z5C8JRIx1b2JsZ4OGCQY-27" target="z5C8JRIx1b2JsZ4OGCQY-32">
          <mxGeometry relative="1" as="geometry">
            <Array as="points">
              <mxPoint x="970" y="660" />
              <mxPoint x="450" y="660" />
            </Array>
          </mxGeometry>
        </mxCell>
        <object placeholders="1" c4Name="Appointment Service" c4Type="Component" c4Technology="Spring Service" c4Description="Provides the business logic for appointments between clients and trainers in the platform." label="&lt;font style=&quot;font-size: 16px&quot;&gt;&lt;b&gt;%c4Name%&lt;/b&gt;&lt;/font&gt;&lt;div&gt;[%c4Type%: %c4Technology%]&lt;/div&gt;&lt;br&gt;&lt;div&gt;&lt;font style=&quot;font-size: 11px&quot;&gt;%c4Description%&lt;/font&gt;&lt;/div&gt;" id="z5C8JRIx1b2JsZ4OGCQY-27">
          <mxCell style="rounded=1;whiteSpace=wrap;html=1;labelBackgroundColor=none;fillColor=#63BEF2;fontColor=#ffffff;align=center;arcSize=6;strokeColor=#2086C9;metaEdit=1;resizable=0;points=[[0.25,0,0],[0.5,0,0],[0.75,0,0],[1,0.25,0],[1,0.5,0],[1,0.75,0],[0.75,1,0],[0.5,1,0],[0.25,1,0],[0,0.75,0],[0,0.5,0],[0,0.25,0]];" vertex="1" parent="1">
            <mxGeometry x="850" y="440" width="240" height="120" as="geometry" />
          </mxCell>
        </object>
        <mxCell id="z5C8JRIx1b2JsZ4OGCQY-51" style="edgeStyle=orthogonalEdgeStyle;rounded=0;orthogonalLoop=1;jettySize=auto;html=1;curved=1;" edge="1" parent="1" source="z5C8JRIx1b2JsZ4OGCQY-28" target="z5C8JRIx1b2JsZ4OGCQY-33">
          <mxGeometry relative="1" as="geometry">
            <Array as="points">
              <mxPoint x="1230" y="610" />
              <mxPoint x="710" y="610" />
            </Array>
          </mxGeometry>
        </mxCell>
        <mxCell id="z5C8JRIx1b2JsZ4OGCQY-52" style="edgeStyle=orthogonalEdgeStyle;rounded=0;orthogonalLoop=1;jettySize=auto;html=1;curved=1;" edge="1" parent="1" source="z5C8JRIx1b2JsZ4OGCQY-28" target="z5C8JRIx1b2JsZ4OGCQY-36">
          <mxGeometry relative="1" as="geometry">
            <Array as="points">
              <mxPoint x="1230" y="620" />
              <mxPoint x="1490" y="620" />
            </Array>
          </mxGeometry>
        </mxCell>
        <mxCell id="z5C8JRIx1b2JsZ4OGCQY-55" style="edgeStyle=orthogonalEdgeStyle;rounded=0;orthogonalLoop=1;jettySize=auto;html=1;curved=1;" edge="1" parent="1" source="z5C8JRIx1b2JsZ4OGCQY-28" target="z5C8JRIx1b2JsZ4OGCQY-32">
          <mxGeometry relative="1" as="geometry">
            <Array as="points">
              <mxPoint x="1230" y="610" />
              <mxPoint x="450" y="610" />
            </Array>
          </mxGeometry>
        </mxCell>
        <object placeholders="1" c4Name="Rating Service" c4Type="Component" c4Technology="Spring Service" c4Description="Provides the business logic related to the ratings of trainers in the platform." label="&lt;font style=&quot;font-size: 16px&quot;&gt;&lt;b&gt;%c4Name%&lt;/b&gt;&lt;/font&gt;&lt;div&gt;[%c4Type%: %c4Technology%]&lt;/div&gt;&lt;br&gt;&lt;div&gt;&lt;font style=&quot;font-size: 11px&quot;&gt;%c4Description%&lt;/font&gt;&lt;/div&gt;" id="z5C8JRIx1b2JsZ4OGCQY-28">
          <mxCell style="rounded=1;whiteSpace=wrap;html=1;labelBackgroundColor=none;fillColor=#63BEF2;fontColor=#ffffff;align=center;arcSize=6;strokeColor=#2086C9;metaEdit=1;resizable=0;points=[[0.25,0,0],[0.5,0,0],[0.75,0,0],[1,0.25,0],[1,0.5,0],[1,0.75,0],[0.75,1,0],[0.5,1,0],[0.25,1,0],[0,0.75,0],[0,0.5,0],[0,0.25,0]];" vertex="1" parent="1">
            <mxGeometry x="1110" y="440" width="240" height="120" as="geometry" />
          </mxCell>
        </object>
        <object placeholders="1" c4Name="Recipes External API" c4Type="Software System" c4Description="Provides data for different recipes from an external provider." label="&lt;font style=&quot;font-size: 16px&quot;&gt;&lt;b&gt;%c4Name%&lt;/b&gt;&lt;/font&gt;&lt;div&gt;[%c4Type%]&lt;/div&gt;&lt;br&gt;&lt;div&gt;&lt;font style=&quot;font-size: 11px&quot;&gt;&lt;font color=&quot;#cccccc&quot;&gt;%c4Description%&lt;/font&gt;&lt;/div&gt;" id="z5C8JRIx1b2JsZ4OGCQY-29">
          <mxCell style="rounded=1;whiteSpace=wrap;html=1;labelBackgroundColor=none;fillColor=#8C8496;fontColor=#ffffff;align=center;arcSize=10;strokeColor=#736782;metaEdit=1;resizable=0;points=[[0.25,0,0],[0.5,0,0],[0.75,0,0],[1,0.25,0],[1,0.5,0],[1,0.75,0],[0.75,1,0],[0.5,1,0],[0.25,1,0],[0,0.75,0],[0,0.5,0],[0,0.25,0]];" vertex="1" parent="1">
            <mxGeometry x="1370" y="170" width="240" height="120" as="geometry" />
          </mxCell>
        </object>
        <mxCell id="z5C8JRIx1b2JsZ4OGCQY-37" style="edgeStyle=orthogonalEdgeStyle;rounded=0;orthogonalLoop=1;jettySize=auto;html=1;curved=1;" edge="1" parent="1" source="z5C8JRIx1b2JsZ4OGCQY-30" target="z5C8JRIx1b2JsZ4OGCQY-15">
          <mxGeometry relative="1" as="geometry">
            <Array as="points">
              <mxPoint x="190" y="890" />
              <mxPoint x="830" y="890" />
            </Array>
          </mxGeometry>
        </mxCell>
        <object placeholders="1" c4Name="User Repository" c4Type="Component" c4Technology="Spring JPA Repository" c4Description="Reads and writes data in the database related to the users." label="&lt;font style=&quot;font-size: 16px&quot;&gt;&lt;b&gt;%c4Name%&lt;/b&gt;&lt;/font&gt;&lt;div&gt;[%c4Type%: %c4Technology%]&lt;/div&gt;&lt;br&gt;&lt;div&gt;&lt;font style=&quot;font-size: 11px&quot;&gt;%c4Description%&lt;/font&gt;&lt;/div&gt;" id="z5C8JRIx1b2JsZ4OGCQY-30">
          <mxCell style="rounded=1;whiteSpace=wrap;html=1;labelBackgroundColor=none;fillColor=#63BEF2;fontColor=#ffffff;align=center;arcSize=6;strokeColor=#2086C9;metaEdit=1;resizable=0;points=[[0.25,0,0],[0.5,0,0],[0.75,0,0],[1,0.25,0],[1,0.5,0],[1,0.75,0],[0.75,1,0],[0.5,1,0],[0.25,1,0],[0,0.75,0],[0,0.5,0],[0,0.25,0]];" vertex="1" parent="1">
            <mxGeometry x="70" y="710" width="240" height="120" as="geometry" />
          </mxCell>
        </object>
        <object placeholders="1" c4Name="Client Repository" c4Type="Component" c4Technology="Spring JPA Repository" c4Description="Reads and writes data in the database related to the clients." label="&lt;font style=&quot;font-size: 16px&quot;&gt;&lt;b&gt;%c4Name%&lt;/b&gt;&lt;/font&gt;&lt;div&gt;[%c4Type%: %c4Technology%]&lt;/div&gt;&lt;br&gt;&lt;div&gt;&lt;font style=&quot;font-size: 11px&quot;&gt;%c4Description%&lt;/font&gt;&lt;/div&gt;" id="z5C8JRIx1b2JsZ4OGCQY-32">
          <mxCell style="rounded=1;whiteSpace=wrap;html=1;labelBackgroundColor=none;fillColor=#63BEF2;fontColor=#ffffff;align=center;arcSize=6;strokeColor=#2086C9;metaEdit=1;resizable=0;points=[[0.25,0,0],[0.5,0,0],[0.75,0,0],[1,0.25,0],[1,0.5,0],[1,0.75,0],[0.75,1,0],[0.5,1,0],[0.25,1,0],[0,0.75,0],[0,0.5,0],[0,0.25,0]];" vertex="1" parent="1">
            <mxGeometry x="330" y="710" width="240" height="120" as="geometry" />
          </mxCell>
        </object>
        <object placeholders="1" c4Name="Trainer Repository" c4Type="Component" c4Technology="Spring JPA Repository" c4Description="Reads and writes data in the database related to the trainers." label="&lt;font style=&quot;font-size: 16px&quot;&gt;&lt;b&gt;%c4Name%&lt;/b&gt;&lt;/font&gt;&lt;div&gt;[%c4Type%: %c4Technology%]&lt;/div&gt;&lt;br&gt;&lt;div&gt;&lt;font style=&quot;font-size: 11px&quot;&gt;%c4Description%&lt;/font&gt;&lt;/div&gt;" id="z5C8JRIx1b2JsZ4OGCQY-33">
          <mxCell style="rounded=1;whiteSpace=wrap;html=1;labelBackgroundColor=none;fillColor=#63BEF2;fontColor=#ffffff;align=center;arcSize=6;strokeColor=#2086C9;metaEdit=1;resizable=0;points=[[0.25,0,0],[0.5,0,0],[0.75,0,0],[1,0.25,0],[1,0.5,0],[1,0.75,0],[0.75,1,0],[0.5,1,0],[0.25,1,0],[0,0.75,0],[0,0.5,0],[0,0.25,0]];" vertex="1" parent="1">
            <mxGeometry x="590" y="710" width="240" height="120" as="geometry" />
          </mxCell>
        </object>
        <mxCell id="z5C8JRIx1b2JsZ4OGCQY-40" style="edgeStyle=orthogonalEdgeStyle;rounded=0;orthogonalLoop=1;jettySize=auto;html=1;curved=1;entryX=0.5;entryY=0;entryDx=0;entryDy=0;entryPerimeter=0;" edge="1" parent="1" source="z5C8JRIx1b2JsZ4OGCQY-34" target="z5C8JRIx1b2JsZ4OGCQY-15">
          <mxGeometry relative="1" as="geometry">
            <mxPoint x="830" y="940" as="targetPoint" />
            <Array as="points">
              <mxPoint x="970" y="900" />
              <mxPoint x="830" y="900" />
            </Array>
          </mxGeometry>
        </mxCell>
        <object placeholders="1" c4Name="Workout Repository" c4Type="Component" c4Technology="Spring JPA Repository" c4Description="Reads and writes data in the database related to the workouts." label="&lt;font style=&quot;font-size: 16px&quot;&gt;&lt;b&gt;%c4Name%&lt;/b&gt;&lt;/font&gt;&lt;div&gt;[%c4Type%: %c4Technology%]&lt;/div&gt;&lt;br&gt;&lt;div&gt;&lt;font style=&quot;font-size: 11px&quot;&gt;%c4Description%&lt;/font&gt;&lt;/div&gt;" id="z5C8JRIx1b2JsZ4OGCQY-34">
          <mxCell style="rounded=1;whiteSpace=wrap;html=1;labelBackgroundColor=none;fillColor=#63BEF2;fontColor=#ffffff;align=center;arcSize=6;strokeColor=#2086C9;metaEdit=1;resizable=0;points=[[0.25,0,0],[0.5,0,0],[0.75,0,0],[1,0.25,0],[1,0.5,0],[1,0.75,0],[0.75,1,0],[0.5,1,0],[0.25,1,0],[0,0.75,0],[0,0.5,0],[0,0.25,0]];" vertex="1" parent="1">
            <mxGeometry x="850" y="720" width="240" height="120" as="geometry" />
          </mxCell>
        </object>
        <mxCell id="z5C8JRIx1b2JsZ4OGCQY-41" style="edgeStyle=orthogonalEdgeStyle;rounded=0;orthogonalLoop=1;jettySize=auto;html=1;curved=1;" edge="1" parent="1" source="z5C8JRIx1b2JsZ4OGCQY-35" target="z5C8JRIx1b2JsZ4OGCQY-15">
          <mxGeometry relative="1" as="geometry">
            <Array as="points">
              <mxPoint x="1230" y="890" />
              <mxPoint x="830" y="890" />
            </Array>
          </mxGeometry>
        </mxCell>
        <object placeholders="1" c4Name="Appointment Repository" c4Type="Component" c4Technology="Spring JPA Repository" c4Description="Reads and writes data in the database related to the appointments." label="&lt;font style=&quot;font-size: 16px&quot;&gt;&lt;b&gt;%c4Name%&lt;/b&gt;&lt;/font&gt;&lt;div&gt;[%c4Type%: %c4Technology%]&lt;/div&gt;&lt;br&gt;&lt;div&gt;&lt;font style=&quot;font-size: 11px&quot;&gt;%c4Description%&lt;/font&gt;&lt;/div&gt;" id="z5C8JRIx1b2JsZ4OGCQY-35">
          <mxCell style="rounded=1;whiteSpace=wrap;html=1;labelBackgroundColor=none;fillColor=#63BEF2;fontColor=#ffffff;align=center;arcSize=6;strokeColor=#2086C9;metaEdit=1;resizable=0;points=[[0.25,0,0],[0.5,0,0],[0.75,0,0],[1,0.25,0],[1,0.5,0],[1,0.75,0],[0.75,1,0],[0.5,1,0],[0.25,1,0],[0,0.75,0],[0,0.5,0],[0,0.25,0]];" vertex="1" parent="1">
            <mxGeometry x="1110" y="720" width="240" height="120" as="geometry" />
          </mxCell>
        </object>
        <mxCell id="z5C8JRIx1b2JsZ4OGCQY-42" style="edgeStyle=orthogonalEdgeStyle;rounded=0;orthogonalLoop=1;jettySize=auto;html=1;curved=1;" edge="1" parent="1" source="z5C8JRIx1b2JsZ4OGCQY-36" target="z5C8JRIx1b2JsZ4OGCQY-15">
          <mxGeometry relative="1" as="geometry">
            <Array as="points">
              <mxPoint x="1490" y="890" />
              <mxPoint x="830" y="890" />
            </Array>
          </mxGeometry>
        </mxCell>
        <object placeholders="1" c4Name="Rating Repository" c4Type="Component" c4Technology="Spring JPA Repository" c4Description="Reads and writes data in the database related to the ratings." label="&lt;font style=&quot;font-size: 16px&quot;&gt;&lt;b&gt;%c4Name%&lt;/b&gt;&lt;/font&gt;&lt;div&gt;[%c4Type%: %c4Technology%]&lt;/div&gt;&lt;br&gt;&lt;div&gt;&lt;font style=&quot;font-size: 11px&quot;&gt;%c4Description%&lt;/font&gt;&lt;/div&gt;" id="z5C8JRIx1b2JsZ4OGCQY-36">
          <mxCell style="rounded=1;whiteSpace=wrap;html=1;labelBackgroundColor=none;fillColor=#63BEF2;fontColor=#ffffff;align=center;arcSize=6;strokeColor=#2086C9;metaEdit=1;resizable=0;points=[[0.25,0,0],[0.5,0,0],[0.75,0,0],[1,0.25,0],[1,0.5,0],[1,0.75,0],[0.75,1,0],[0.5,1,0],[0.25,1,0],[0,0.75,0],[0,0.5,0],[0,0.25,0]];" vertex="1" parent="1">
            <mxGeometry x="1370" y="730" width="240" height="120" as="geometry" />
          </mxCell>
        </object>
        <mxCell id="z5C8JRIx1b2JsZ4OGCQY-38" style="edgeStyle=orthogonalEdgeStyle;rounded=0;orthogonalLoop=1;jettySize=auto;html=1;entryX=0.5;entryY=0;entryDx=0;entryDy=0;entryPerimeter=0;curved=1;" edge="1" parent="1" source="z5C8JRIx1b2JsZ4OGCQY-32" target="z5C8JRIx1b2JsZ4OGCQY-15">
          <mxGeometry relative="1" as="geometry">
            <Array as="points">
              <mxPoint x="450" y="890" />
              <mxPoint x="830" y="890" />
            </Array>
          </mxGeometry>
        </mxCell>
        <mxCell id="z5C8JRIx1b2JsZ4OGCQY-39" style="edgeStyle=orthogonalEdgeStyle;rounded=0;orthogonalLoop=1;jettySize=auto;html=1;entryX=0.5;entryY=0;entryDx=0;entryDy=0;entryPerimeter=0;curved=1;" edge="1" parent="1" source="z5C8JRIx1b2JsZ4OGCQY-33" target="z5C8JRIx1b2JsZ4OGCQY-15">
          <mxGeometry relative="1" as="geometry">
            <Array as="points">
              <mxPoint x="710" y="900" />
              <mxPoint x="830" y="900" />
            </Array>
          </mxGeometry>
        </mxCell>
        <mxCell id="z5C8JRIx1b2JsZ4OGCQY-43" style="edgeStyle=orthogonalEdgeStyle;rounded=0;orthogonalLoop=1;jettySize=auto;html=1;entryX=0.5;entryY=0;entryDx=0;entryDy=0;entryPerimeter=0;curved=1;" edge="1" parent="1" source="z5C8JRIx1b2JsZ4OGCQY-24" target="z5C8JRIx1b2JsZ4OGCQY-30">
          <mxGeometry relative="1" as="geometry" />
        </mxCell>
        <mxCell id="z5C8JRIx1b2JsZ4OGCQY-44" style="edgeStyle=orthogonalEdgeStyle;rounded=0;orthogonalLoop=1;jettySize=auto;html=1;entryX=0.5;entryY=0;entryDx=0;entryDy=0;entryPerimeter=0;curved=1;" edge="1" parent="1" source="z5C8JRIx1b2JsZ4OGCQY-24" target="z5C8JRIx1b2JsZ4OGCQY-32">
          <mxGeometry relative="1" as="geometry">
            <Array as="points">
              <mxPoint x="190" y="590" />
              <mxPoint x="450" y="590" />
            </Array>
          </mxGeometry>
        </mxCell>
        <mxCell id="z5C8JRIx1b2JsZ4OGCQY-46" style="edgeStyle=orthogonalEdgeStyle;rounded=0;orthogonalLoop=1;jettySize=auto;html=1;entryX=0.5;entryY=0;entryDx=0;entryDy=0;entryPerimeter=0;curved=1;" edge="1" parent="1" source="z5C8JRIx1b2JsZ4OGCQY-25" target="z5C8JRIx1b2JsZ4OGCQY-30">
          <mxGeometry relative="1" as="geometry">
            <Array as="points">
              <mxPoint x="450" y="660" />
              <mxPoint x="190" y="660" />
            </Array>
          </mxGeometry>
        </mxCell>
        <mxCell id="z5C8JRIx1b2JsZ4OGCQY-47" style="edgeStyle=orthogonalEdgeStyle;rounded=0;orthogonalLoop=1;jettySize=auto;html=1;entryX=0.5;entryY=0;entryDx=0;entryDy=0;entryPerimeter=0;curved=1;" edge="1" parent="1" source="z5C8JRIx1b2JsZ4OGCQY-26" target="z5C8JRIx1b2JsZ4OGCQY-34">
          <mxGeometry relative="1" as="geometry">
            <Array as="points">
              <mxPoint x="710" y="690" />
              <mxPoint x="970" y="690" />
            </Array>
          </mxGeometry>
        </mxCell>
        <mxCell id="z5C8JRIx1b2JsZ4OGCQY-50" style="edgeStyle=orthogonalEdgeStyle;rounded=0;orthogonalLoop=1;jettySize=auto;html=1;entryX=0.5;entryY=0;entryDx=0;entryDy=0;entryPerimeter=0;curved=1;" edge="1" parent="1" source="z5C8JRIx1b2JsZ4OGCQY-26" target="z5C8JRIx1b2JsZ4OGCQY-33">
          <mxGeometry relative="1" as="geometry" />
        </mxCell>
        <mxCell id="z5C8JRIx1b2JsZ4OGCQY-53" style="edgeStyle=orthogonalEdgeStyle;rounded=0;orthogonalLoop=1;jettySize=auto;html=1;entryX=0.5;entryY=0;entryDx=0;entryDy=0;entryPerimeter=0;curved=1;" edge="1" parent="1" source="z5C8JRIx1b2JsZ4OGCQY-27" target="z5C8JRIx1b2JsZ4OGCQY-35">
          <mxGeometry relative="1" as="geometry">
            <Array as="points">
              <mxPoint x="970" y="670" />
              <mxPoint x="1230" y="670" />
            </Array>
          </mxGeometry>
        </mxCell>
        <mxCell id="z5C8JRIx1b2JsZ4OGCQY-56" style="edgeStyle=orthogonalEdgeStyle;rounded=0;orthogonalLoop=1;jettySize=auto;html=1;entryX=0.5;entryY=0;entryDx=0;entryDy=0;entryPerimeter=0;curved=1;" edge="1" parent="1" source="z5C8JRIx1b2JsZ4OGCQY-18" target="z5C8JRIx1b2JsZ4OGCQY-24">
          <mxGeometry relative="1" as="geometry" />
        </mxCell>
        <mxCell id="z5C8JRIx1b2JsZ4OGCQY-57" style="edgeStyle=orthogonalEdgeStyle;rounded=0;orthogonalLoop=1;jettySize=auto;html=1;entryX=0.5;entryY=0;entryDx=0;entryDy=0;entryPerimeter=0;curved=1;" edge="1" parent="1" source="z5C8JRIx1b2JsZ4OGCQY-20" target="z5C8JRIx1b2JsZ4OGCQY-25">
          <mxGeometry relative="1" as="geometry" />
        </mxCell>
        <mxCell id="z5C8JRIx1b2JsZ4OGCQY-58" style="edgeStyle=orthogonalEdgeStyle;rounded=0;orthogonalLoop=1;jettySize=auto;html=1;entryX=0.5;entryY=0;entryDx=0;entryDy=0;entryPerimeter=0;curved=1;" edge="1" parent="1" source="z5C8JRIx1b2JsZ4OGCQY-21" target="z5C8JRIx1b2JsZ4OGCQY-26">
          <mxGeometry relative="1" as="geometry" />
        </mxCell>
        <mxCell id="z5C8JRIx1b2JsZ4OGCQY-59" style="edgeStyle=orthogonalEdgeStyle;rounded=0;orthogonalLoop=1;jettySize=auto;html=1;entryX=0.5;entryY=0;entryDx=0;entryDy=0;entryPerimeter=0;curved=1;" edge="1" parent="1" source="z5C8JRIx1b2JsZ4OGCQY-22" target="z5C8JRIx1b2JsZ4OGCQY-27">
          <mxGeometry relative="1" as="geometry" />
        </mxCell>
        <mxCell id="z5C8JRIx1b2JsZ4OGCQY-60" style="edgeStyle=orthogonalEdgeStyle;rounded=0;orthogonalLoop=1;jettySize=auto;html=1;entryX=0.5;entryY=0;entryDx=0;entryDy=0;entryPerimeter=0;curved=1;" edge="1" parent="1" source="z5C8JRIx1b2JsZ4OGCQY-23" target="z5C8JRIx1b2JsZ4OGCQY-28">
          <mxGeometry relative="1" as="geometry" />
        </mxCell>
        <mxCell id="z5C8JRIx1b2JsZ4OGCQY-61" style="edgeStyle=orthogonalEdgeStyle;rounded=0;orthogonalLoop=1;jettySize=auto;html=1;entryX=0.5;entryY=0;entryDx=0;entryDy=0;entryPerimeter=0;curved=1;" edge="1" parent="1" source="z5C8JRIx1b2JsZ4OGCQY-19" target="z5C8JRIx1b2JsZ4OGCQY-18">
          <mxGeometry relative="1" as="geometry">
            <Array as="points">
              <mxPoint x="830" y="70" />
              <mxPoint x="190" y="70" />
            </Array>
          </mxGeometry>
        </mxCell>
        <mxCell id="z5C8JRIx1b2JsZ4OGCQY-63" style="edgeStyle=orthogonalEdgeStyle;rounded=0;orthogonalLoop=1;jettySize=auto;html=1;entryX=0.5;entryY=0;entryDx=0;entryDy=0;entryPerimeter=0;curved=1;" edge="1" parent="1" source="z5C8JRIx1b2JsZ4OGCQY-19" target="z5C8JRIx1b2JsZ4OGCQY-21">
          <mxGeometry relative="1" as="geometry">
            <Array as="points">
              <mxPoint x="830" y="60" />
              <mxPoint x="710" y="60" />
            </Array>
          </mxGeometry>
        </mxCell>
        <mxCell id="z5C8JRIx1b2JsZ4OGCQY-66" style="edgeStyle=orthogonalEdgeStyle;rounded=0;orthogonalLoop=1;jettySize=auto;html=1;entryX=0.5;entryY=0;entryDx=0;entryDy=0;entryPerimeter=0;curved=1;" edge="1" parent="1" source="z5C8JRIx1b2JsZ4OGCQY-19" target="z5C8JRIx1b2JsZ4OGCQY-29">
          <mxGeometry relative="1" as="geometry">
            <Array as="points">
              <mxPoint x="830" y="80" />
              <mxPoint x="1490" y="80" />
            </Array>
          </mxGeometry>
        </mxCell>
      </root>
    </mxGraphModel>
  </diagram>
</mxfile>
